<mxfile host="app.diagrams.net" modified="2022-01-17T12:14:32.452Z" agent="5.0 (Windows)" etag="8Y87986MhsyQxPYaSIEk" version="16.2.7" type="github">
  <diagram id="C5RBs43oDa-KdzZeNtuy" name="Page-1">
    <mxGraphModel dx="1713" dy="1025" grid="1" gridSize="10" guides="1" tooltips="1" connect="1" arrows="1" fold="1" page="1" pageScale="1" pageWidth="1169" pageHeight="827" math="0" shadow="0">
      <root>
        <mxCell id="WIyWlLk6GJQsqaUBKTNV-0" />
        <mxCell id="WIyWlLk6GJQsqaUBKTNV-1" parent="WIyWlLk6GJQsqaUBKTNV-0" />
        <mxCell id="JNPwkmlDs6uKcqjjOvbe-81" value="" style="group" vertex="1" connectable="0" parent="WIyWlLk6GJQsqaUBKTNV-1">
          <mxGeometry x="60" y="50" width="1050" height="700" as="geometry" />
        </mxCell>
        <mxCell id="mLTppHVD_9ZPHQQd_vt6-0" value="" style="swimlane;startSize=0;" parent="JNPwkmlDs6uKcqjjOvbe-81" vertex="1">
          <mxGeometry x="32.55813953488372" y="173.26732673267327" width="271.3178294573643" height="526.7326732673267" as="geometry" />
        </mxCell>
        <mxCell id="WIyWlLk6GJQsqaUBKTNV-3" value="&lt;div style=&quot;font-size: 16px;&quot;&gt;Login page&lt;br style=&quot;font-size: 16px;&quot;&gt;&lt;/div&gt;&lt;div style=&quot;font-size: 16px;&quot;&gt;POST /login&lt;/div&gt;" style="rounded=1;whiteSpace=wrap;html=1;fontSize=16;glass=0;strokeWidth=1;shadow=0;" parent="mLTppHVD_9ZPHQQd_vt6-0" vertex="1">
          <mxGeometry x="54.26356589147287" y="83.16831683168317" width="162.7906976744186" height="55.445544554455445" as="geometry" />
        </mxCell>
        <mxCell id="JNPwkmlDs6uKcqjjOvbe-14" value="Home page" style="rounded=1;whiteSpace=wrap;html=1;fontSize=16;glass=0;strokeWidth=1;shadow=0;" vertex="1" parent="mLTppHVD_9ZPHQQd_vt6-0">
          <mxGeometry x="54.26356589147287" y="221.78217821782178" width="162.7906976744186" height="55.445544554455445" as="geometry" />
        </mxCell>
        <mxCell id="JNPwkmlDs6uKcqjjOvbe-21" value="Login page" style="rounded=1;whiteSpace=wrap;html=1;fontSize=16;glass=0;strokeWidth=1;shadow=0;" vertex="1" parent="mLTppHVD_9ZPHQQd_vt6-0">
          <mxGeometry x="54.26356589147287" y="360.3960396039604" width="162.7906976744186" height="55.445544554455445" as="geometry" />
        </mxCell>
        <mxCell id="mLTppHVD_9ZPHQQd_vt6-1" value="" style="swimlane;startSize=0;" parent="JNPwkmlDs6uKcqjjOvbe-81" vertex="1">
          <mxGeometry x="412.4031007751938" y="173.26732673267327" width="271.3178294573643" height="526.7326732673267" as="geometry" />
        </mxCell>
        <mxCell id="WIyWlLk6GJQsqaUBKTNV-11" value="&lt;div style=&quot;font-size: 16px;&quot;&gt;passport-strategy&lt;/div&gt;&lt;div style=&quot;font-size: 16px;&quot;&gt;處理&lt;/div&gt;" style="rounded=1;whiteSpace=wrap;html=1;fontSize=16;glass=0;strokeWidth=1;shadow=0;" parent="mLTppHVD_9ZPHQQd_vt6-1" vertex="1">
          <mxGeometry x="54.26356589147287" y="83.16831683168317" width="162.7906976744186" height="55.445544554455445" as="geometry" />
        </mxCell>
        <mxCell id="JNPwkmlDs6uKcqjjOvbe-9" value="&lt;div style=&quot;font-size: 16px;&quot;&gt;passport-strategy&lt;/div&gt;&lt;div style=&quot;font-size: 16px;&quot;&gt;序列至session&lt;br style=&quot;font-size: 16px;&quot;&gt;&lt;/div&gt;" style="rounded=1;whiteSpace=wrap;html=1;fontSize=16;glass=0;strokeWidth=1;shadow=0;" vertex="1" parent="mLTppHVD_9ZPHQQd_vt6-1">
          <mxGeometry x="54.26356589147287" y="221.78217821782178" width="162.7906976744186" height="55.445544554455445" as="geometry" />
        </mxCell>
        <mxCell id="JNPwkmlDs6uKcqjjOvbe-19" value="&lt;div style=&quot;font-size: 16px;&quot;&gt;passport-strategy&lt;/div&gt;&lt;div style=&quot;font-size: 16px;&quot;&gt;序列失敗&lt;br style=&quot;font-size: 16px;&quot;&gt;&lt;/div&gt;" style="rounded=1;whiteSpace=wrap;html=1;fontSize=16;glass=0;strokeWidth=1;shadow=0;" vertex="1" parent="mLTppHVD_9ZPHQQd_vt6-1">
          <mxGeometry x="54.26356589147287" y="360.3960396039604" width="162.7906976744186" height="55.445544554455445" as="geometry" />
        </mxCell>
        <mxCell id="mLTppHVD_9ZPHQQd_vt6-2" value="" style="swimlane;startSize=0;" parent="JNPwkmlDs6uKcqjjOvbe-81" vertex="1">
          <mxGeometry x="778.6821705426356" y="173.26732673267327" width="271.3178294573643" height="526.7326732673267" as="geometry" />
        </mxCell>
        <mxCell id="WIyWlLk6GJQsqaUBKTNV-6" value="&lt;div style=&quot;font-size: 16px;&quot;&gt;使用者&lt;/div&gt;&lt;div style=&quot;font-size: 16px;&quot;&gt;是否存在&lt;/div&gt;" style="rhombus;whiteSpace=wrap;html=1;shadow=0;fontFamily=Helvetica;fontSize=16;align=center;strokeWidth=1;spacing=6;spacingTop=-4;" parent="mLTppHVD_9ZPHQQd_vt6-2" vertex="1">
          <mxGeometry x="81.3953488372093" y="55.445544554455445" width="135.65891472868216" height="110.89108910891089" as="geometry" />
        </mxCell>
        <mxCell id="mLTppHVD_9ZPHQQd_vt6-4" style="edgeStyle=orthogonalEdgeStyle;rounded=0;orthogonalLoop=1;jettySize=auto;html=1;entryX=0;entryY=0.5;entryDx=0;entryDy=0;fontSize=16;" parent="JNPwkmlDs6uKcqjjOvbe-81" source="WIyWlLk6GJQsqaUBKTNV-3" target="WIyWlLk6GJQsqaUBKTNV-11" edge="1">
          <mxGeometry relative="1" as="geometry" />
        </mxCell>
        <mxCell id="JNPwkmlDs6uKcqjjOvbe-2" value="送出帳號密碼" style="text;html=1;align=center;verticalAlign=middle;resizable=0;points=[];autosize=1;strokeColor=#d6b656;fillColor=#fff2cc;fontSize=16;" vertex="1" parent="JNPwkmlDs6uKcqjjOvbe-81">
          <mxGeometry x="280.31007751937983" y="242.57425742574256" width="110" height="20" as="geometry" />
        </mxCell>
        <mxCell id="JNPwkmlDs6uKcqjjOvbe-3" value="查詢使用者資料" style="text;html=1;align=center;verticalAlign=middle;resizable=0;points=[];autosize=1;strokeColor=#d6b656;fillColor=#fff2cc;fontSize=16;" vertex="1" parent="JNPwkmlDs6uKcqjjOvbe-81">
          <mxGeometry x="655.1550387596899" y="242.57425742574256" width="130" height="20" as="geometry" />
        </mxCell>
        <mxCell id="JNPwkmlDs6uKcqjjOvbe-6" style="edgeStyle=orthogonalEdgeStyle;rounded=0;orthogonalLoop=1;jettySize=auto;html=1;entryX=0;entryY=0.5;entryDx=0;entryDy=0;fontSize=16;" edge="1" parent="JNPwkmlDs6uKcqjjOvbe-81" source="WIyWlLk6GJQsqaUBKTNV-11" target="WIyWlLk6GJQsqaUBKTNV-6">
          <mxGeometry relative="1" as="geometry">
            <mxPoint x="846.5116279069767" y="284.15841584158414" as="targetPoint" />
          </mxGeometry>
        </mxCell>
        <mxCell id="JNPwkmlDs6uKcqjjOvbe-8" style="edgeStyle=orthogonalEdgeStyle;rounded=0;orthogonalLoop=1;jettySize=auto;html=1;entryX=1;entryY=0.5;entryDx=0;entryDy=0;fontSize=16;" edge="1" parent="JNPwkmlDs6uKcqjjOvbe-81" source="WIyWlLk6GJQsqaUBKTNV-6" target="JNPwkmlDs6uKcqjjOvbe-9">
          <mxGeometry relative="1" as="geometry">
            <Array as="points">
              <mxPoint x="927.906976744186" y="422.7722772277227" />
            </Array>
          </mxGeometry>
        </mxCell>
        <mxCell id="JNPwkmlDs6uKcqjjOvbe-10" value="存在" style="text;html=1;align=center;verticalAlign=middle;resizable=0;points=[];autosize=1;strokeColor=#d6b656;fillColor=#fff2cc;fontSize=16;" vertex="1" parent="JNPwkmlDs6uKcqjjOvbe-81">
          <mxGeometry x="705.8527131782946" y="381.18811881188117" width="50" height="20" as="geometry" />
        </mxCell>
        <mxCell id="JNPwkmlDs6uKcqjjOvbe-11" value="&lt;font style=&quot;font-size: 20px;&quot;&gt;Web browser&lt;/font&gt;" style="text;html=1;align=center;verticalAlign=middle;resizable=0;points=[];autosize=1;fontSize=20;" vertex="1" parent="JNPwkmlDs6uKcqjjOvbe-81">
          <mxGeometry x="103.21875968992248" y="112.82178217821783" width="130" height="30" as="geometry" />
        </mxCell>
        <mxCell id="JNPwkmlDs6uKcqjjOvbe-12" value="&lt;font style=&quot;font-size: 20px&quot;&gt;Server&lt;/font&gt;" style="text;html=1;align=center;verticalAlign=middle;resizable=0;points=[];autosize=1;fontSize=20;" vertex="1" parent="JNPwkmlDs6uKcqjjOvbe-81">
          <mxGeometry x="513.0613953488372" y="112.82178217821783" width="70" height="30" as="geometry" />
        </mxCell>
        <mxCell id="JNPwkmlDs6uKcqjjOvbe-13" value="&lt;font style=&quot;font-size: 20px&quot;&gt;Database&lt;/font&gt;" style="text;html=1;align=center;verticalAlign=middle;resizable=0;points=[];autosize=1;fontSize=20;" vertex="1" parent="JNPwkmlDs6uKcqjjOvbe-81">
          <mxGeometry x="864.3416279069768" y="112.82178217821783" width="100" height="30" as="geometry" />
        </mxCell>
        <mxCell id="JNPwkmlDs6uKcqjjOvbe-16" style="edgeStyle=orthogonalEdgeStyle;rounded=0;orthogonalLoop=1;jettySize=auto;html=1;entryX=1;entryY=0.5;entryDx=0;entryDy=0;fontSize=16;" edge="1" parent="JNPwkmlDs6uKcqjjOvbe-81" source="JNPwkmlDs6uKcqjjOvbe-9" target="JNPwkmlDs6uKcqjjOvbe-14">
          <mxGeometry relative="1" as="geometry" />
        </mxCell>
        <mxCell id="JNPwkmlDs6uKcqjjOvbe-17" value="redirect" style="text;html=1;align=center;verticalAlign=middle;resizable=0;points=[];autosize=1;strokeColor=#d6b656;fillColor=#fff2cc;fontSize=16;" vertex="1" parent="JNPwkmlDs6uKcqjjOvbe-81">
          <mxGeometry x="305.65891472868213" y="381.18811881188117" width="70" height="20" as="geometry" />
        </mxCell>
        <mxCell id="JNPwkmlDs6uKcqjjOvbe-18" style="edgeStyle=orthogonalEdgeStyle;rounded=0;orthogonalLoop=1;jettySize=auto;html=1;exitX=1;exitY=0.5;exitDx=0;exitDy=0;fontSize=16;entryX=1;entryY=0.5;entryDx=0;entryDy=0;" edge="1" parent="JNPwkmlDs6uKcqjjOvbe-81" source="WIyWlLk6GJQsqaUBKTNV-6" target="JNPwkmlDs6uKcqjjOvbe-19">
          <mxGeometry relative="1" as="geometry">
            <Array as="points">
              <mxPoint x="995.7364341085272" y="561.3861386138614" />
            </Array>
          </mxGeometry>
        </mxCell>
        <mxCell id="JNPwkmlDs6uKcqjjOvbe-20" value="不存在" style="text;html=1;align=center;verticalAlign=middle;resizable=0;points=[];autosize=1;strokeColor=#d6b656;fillColor=#fff2cc;fontSize=16;" vertex="1" parent="JNPwkmlDs6uKcqjjOvbe-81">
          <mxGeometry x="699.0697674418604" y="519.8019801980198" width="60" height="20" as="geometry" />
        </mxCell>
        <mxCell id="JNPwkmlDs6uKcqjjOvbe-24" style="edgeStyle=orthogonalEdgeStyle;rounded=0;orthogonalLoop=1;jettySize=auto;html=1;entryX=1;entryY=0.5;entryDx=0;entryDy=0;fontSize=16;exitX=0;exitY=0.5;exitDx=0;exitDy=0;" edge="1" parent="JNPwkmlDs6uKcqjjOvbe-81" source="JNPwkmlDs6uKcqjjOvbe-19" target="JNPwkmlDs6uKcqjjOvbe-21">
          <mxGeometry relative="1" as="geometry">
            <mxPoint x="459.8837209302326" y="505.94059405940595" as="sourcePoint" />
            <mxPoint x="242.82945736434107" y="505.94059405940595" as="targetPoint" />
            <Array as="points" />
          </mxGeometry>
        </mxCell>
        <mxCell id="JNPwkmlDs6uKcqjjOvbe-25" value="返回錯誤訊息" style="text;html=1;align=center;verticalAlign=middle;resizable=0;points=[];autosize=1;strokeColor=#d6b656;fillColor=#fff2cc;fontSize=16;" vertex="1" parent="JNPwkmlDs6uKcqjjOvbe-81">
          <mxGeometry x="280.31007751937983" y="519.8019801980198" width="110" height="20" as="geometry" />
        </mxCell>
        <mxCell id="JNPwkmlDs6uKcqjjOvbe-26" value="&lt;div&gt;&lt;font style=&quot;font-size: 40px&quot;&gt;登入&lt;/font&gt;&lt;/div&gt;" style="text;html=1;align=center;verticalAlign=middle;resizable=0;points=[];autosize=1;fillColor=#647687;strokeColor=#314354;spacing=8;spacingBottom=2;spacingTop=2;fontColor=#ffffff;spacingLeft=4;spacingRight=4;" vertex="1" parent="JNPwkmlDs6uKcqjjOvbe-81">
          <mxGeometry width="120" height="50" as="geometry" />
        </mxCell>
      </root>
    </mxGraphModel>
  </diagram>
</mxfile>
